<svg width="314" height="42" viewBox="0 0 314 42" fill="none" xmlns="http://www.w3.org/2000/svg">
<path d="M17.7 41.7C14.1 41.7 11 41.05 8.4 39.75C5.8 38.4167 3.8 36.6 2.4 34.3C1 32 0.3 29.3333 0.3 26.3C0.3 23.2333 0.833333 20.4333 1.9 17.9C2.96667 15.3333 4.46667 13.1167 6.4 11.25C8.33333 9.35 10.6333 7.88333 13.3 6.85C16 5.81666 18.95 5.3 22.15 5.3C25.75 5.3 28.85 5.96666 31.45 7.3C34.05 8.6 36.05 10.4 37.45 12.7C38.85 15 39.55 17.6667 39.55 20.7C39.55 23.7667 39.0167 26.5833 37.95 29.15C36.8833 31.6833 35.3833 33.9 33.45 35.8C31.5167 37.6667 29.2 39.1167 26.5 40.15C23.8333 41.1833 20.9 41.7 17.7 41.7ZM18.55 33.5C20.2833 33.5 21.8167 33.1833 23.15 32.55C24.5167 31.9167 25.6667 31.0333 26.6 29.9C27.5667 28.7333 28.3 27.4167 28.8 25.95C29.3 24.4833 29.55 22.9333 29.55 21.3C29.55 19.7333 29.2167 18.3667 28.55 17.2C27.9167 16.0333 26.9833 15.1333 25.75 14.5C24.55 13.8333 23.0667 13.5 21.3 13.5C19.6 13.5 18.0667 13.8167 16.7 14.45C15.3333 15.0833 14.1667 15.9833 13.2 17.15C12.2667 18.2833 11.55 19.5833 11.05 21.05C10.55 22.5167 10.3 24.0667 10.3 25.7C10.3 27.2333 10.6167 28.6 11.25 29.8C11.9167 30.9667 12.85 31.8833 14.05 32.55C15.2833 33.1833 16.7833 33.5 18.55 33.5ZM62.9852 13.45C65.2852 13.45 67.2352 13.9333 68.8352 14.9C70.4352 15.8333 71.5685 17.2333 72.2352 19.1C72.9352 20.9333 73.0018 23.2333 72.4352 26L69.4352 41H59.9352L62.7352 26.9C63.1018 25.1667 62.9852 23.8333 62.3852 22.9C61.8185 21.9667 60.7518 21.5 59.1852 21.5C57.5852 21.5 56.2352 22 55.1352 23C54.0352 24 53.2685 25.5333 52.8352 27.6L50.1352 41H40.6352L46.0352 13.9H55.0352L53.4852 21.5L52.2852 19.3C53.5852 17.2667 55.1852 15.7833 57.0852 14.85C59.0185 13.9167 60.9852 13.45 62.9852 13.45ZM75.4496 41L82.8496 3.9H92.3496L84.9496 41H75.4496ZM91.1234 41L96.5234 13.9H105.973L100.573 41H91.1234ZM102.573 10.9C100.907 10.9 99.5734 10.45 98.5734 9.55C97.6068 8.61667 97.1234 7.5 97.1234 6.2C97.1234 4.66666 97.6734 3.38333 98.7734 2.35C99.9068 1.31666 101.39 0.799999 103.223 0.799999C104.89 0.799999 106.223 1.23333 107.223 2.1C108.223 2.96666 108.723 4.05 108.723 5.35C108.723 6.98333 108.157 8.31667 107.023 9.35C105.89 10.3833 104.407 10.9 102.573 10.9ZM129.05 13.45C131.35 13.45 133.3 13.9333 134.9 14.9C136.5 15.8333 137.633 17.2333 138.3 19.1C139 20.9333 139.066 23.2333 138.5 26L135.5 41H126L128.8 26.9C129.166 25.1667 129.05 23.8333 128.45 22.9C127.883 21.9667 126.816 21.5 125.25 21.5C123.65 21.5 122.3 22 121.2 23C120.1 24 119.333 25.5333 118.9 27.6L116.2 41H106.7L112.1 13.9H121.1L119.55 21.5L118.35 19.3C119.65 17.2667 121.25 15.7833 123.15 14.85C125.083 13.9167 127.05 13.45 129.05 13.45ZM157.009 41.45C154.109 41.45 151.576 40.95 149.409 39.95C147.276 38.9167 145.609 37.4833 144.409 35.65C143.209 33.7833 142.609 31.6 142.609 29.1C142.609 26.1 143.293 23.4333 144.659 21.1C146.026 18.7333 147.943 16.8667 150.409 15.5C152.876 14.1333 155.743 13.45 159.009 13.45C161.776 13.45 164.143 13.95 166.109 14.95C168.109 15.95 169.643 17.35 170.709 19.15C171.809 20.9167 172.359 22.9833 172.359 25.35C172.359 26.15 172.309 26.9167 172.209 27.65C172.109 28.3833 171.976 29.1 171.809 29.8H150.059L150.959 24.8H167.409L163.459 26.25C163.726 24.95 163.676 23.8667 163.309 23C162.976 22.1 162.393 21.4167 161.559 20.95C160.759 20.45 159.759 20.2 158.559 20.2C157.026 20.2 155.759 20.5833 154.759 21.35C153.793 22.1167 153.059 23.1667 152.559 24.5C152.093 25.8 151.859 27.2167 151.859 28.75C151.859 30.6167 152.376 32 153.409 32.9C154.443 33.7667 155.993 34.2 158.059 34.2C159.259 34.2 160.426 34.0167 161.559 33.65C162.726 33.25 163.743 32.7 164.609 32L168.559 37.95C166.859 39.2167 165.009 40.1167 163.009 40.65C161.043 41.1833 159.043 41.45 157.009 41.45ZM187.094 41.7C185.094 41.7 183.177 41.5333 181.344 41.2C179.511 40.9 177.844 40.4667 176.344 39.9C174.844 39.3 173.561 38.65 172.494 37.95L176.394 30.55C177.594 31.2833 178.827 31.9167 180.094 32.45C181.394 32.95 182.711 33.3333 184.044 33.6C185.377 33.8667 186.711 34 188.044 34C189.311 34 190.394 33.8833 191.294 33.65C192.194 33.3833 192.877 33.0167 193.344 32.55C193.811 32.0833 194.044 31.5333 194.044 30.9C194.044 30.2 193.727 29.65 193.094 29.25C192.494 28.8167 191.694 28.45 190.694 28.15C189.694 27.85 188.577 27.55 187.344 27.25C186.144 26.9167 184.927 26.5333 183.694 26.1C182.494 25.6333 181.394 25.0667 180.394 24.4C179.394 23.7 178.577 22.8167 177.944 21.75C177.344 20.6833 177.044 19.3667 177.044 17.8C177.044 15.2667 177.727 13.0667 179.094 11.2C180.461 9.33333 182.394 7.88333 184.894 6.85C187.427 5.81666 190.411 5.3 193.844 5.3C196.344 5.3 198.677 5.56666 200.844 6.1C203.011 6.6 204.877 7.33333 206.444 8.3L202.844 15.65C201.477 14.7833 199.961 14.1333 198.294 13.7C196.661 13.2333 194.977 13 193.244 13C191.911 13 190.761 13.15 189.794 13.45C188.861 13.75 188.144 14.1667 187.644 14.7C187.177 15.2 186.944 15.7667 186.944 16.4C186.944 17.0667 187.244 17.6167 187.844 18.05C188.444 18.4833 189.244 18.85 190.244 19.15C191.277 19.45 192.394 19.7667 193.594 20.1C194.827 20.4 196.044 20.7667 197.244 21.2C198.444 21.6 199.561 22.15 200.594 22.85C201.627 23.5167 202.444 24.3667 203.044 25.4C203.644 26.4333 203.944 27.7167 203.944 29.25C203.944 31.75 203.261 33.9333 201.894 35.8C200.527 37.6667 198.577 39.1167 196.044 40.15C193.511 41.1833 190.527 41.7 187.094 41.7ZM217.967 41.45C215.867 41.45 214.067 41.05 212.567 40.25C211.067 39.4167 210.001 38.2167 209.367 36.65C208.734 35.05 208.634 33.15 209.067 30.95L213.667 7.85H223.167L218.567 30.9C218.401 31.9333 218.517 32.7333 218.917 33.3C219.317 33.8333 220.001 34.1 220.967 34.1C221.467 34.1 221.951 34.0333 222.417 33.9C222.884 33.7667 223.351 33.5667 223.817 33.3L225.017 39.85C224.017 40.4167 222.901 40.8167 221.667 41.05C220.467 41.3167 219.234 41.45 217.967 41.45ZM206.867 22L208.317 14.9H227.917L226.517 22H206.867ZM242.599 41.45C239.733 41.45 237.233 40.9333 235.099 39.9C232.966 38.8667 231.316 37.4333 230.149 35.6C228.983 33.7333 228.399 31.5667 228.399 29.1C228.399 26.1 229.116 23.4333 230.549 21.1C231.983 18.7333 233.949 16.8667 236.449 15.5C238.949 14.1333 241.816 13.45 245.049 13.45C247.949 13.45 250.449 13.9667 252.549 15C254.683 16 256.333 17.4167 257.499 19.25C258.666 21.0833 259.249 23.25 259.249 25.75C259.249 28.75 258.533 31.4333 257.099 33.8C255.666 36.1667 253.699 38.0333 251.199 39.4C248.699 40.7667 245.833 41.45 242.599 41.45ZM243.149 33.9C244.416 33.9 245.533 33.5833 246.499 32.95C247.466 32.2833 248.216 31.3833 248.749 30.25C249.316 29.1167 249.599 27.7833 249.599 26.25C249.599 24.75 249.149 23.5 248.249 22.5C247.383 21.5 246.133 21 244.499 21C243.233 21 242.116 21.3167 241.149 21.95C240.183 22.5833 239.416 23.4833 238.849 24.65C238.316 25.7833 238.049 27.1167 238.049 28.65C238.049 30.25 238.499 31.5333 239.399 32.5C240.299 33.4333 241.549 33.9 243.149 33.9ZM260.801 41L266.201 13.9H275.201L273.651 21.6L272.751 19.4C273.951 17.2333 275.535 15.7 277.501 14.8C279.468 13.9 281.768 13.45 284.401 13.45L282.751 22C282.351 21.9333 281.985 21.9 281.651 21.9C281.318 21.8667 280.968 21.85 280.601 21.85C278.535 21.85 276.835 22.35 275.501 23.35C274.201 24.3167 273.335 25.9333 272.901 28.2L270.301 41H260.801ZM297.927 41.45C295.027 41.45 292.494 40.95 290.327 39.95C288.194 38.9167 286.527 37.4833 285.327 35.65C284.127 33.7833 283.527 31.6 283.527 29.1C283.527 26.1 284.211 23.4333 285.577 21.1C286.944 18.7333 288.861 16.8667 291.327 15.5C293.794 14.1333 296.661 13.45 299.927 13.45C302.694 13.45 305.061 13.95 307.027 14.95C309.027 15.95 310.561 17.35 311.627 19.15C312.727 20.9167 313.277 22.9833 313.277 25.35C313.277 26.15 313.227 26.9167 313.127 27.65C313.027 28.3833 312.894 29.1 312.727 29.8H290.977L291.877 24.8H308.327L304.377 26.25C304.644 24.95 304.594 23.8667 304.227 23C303.894 22.1 303.311 21.4167 302.477 20.95C301.677 20.45 300.677 20.2 299.477 20.2C297.944 20.2 296.677 20.5833 295.677 21.35C294.711 22.1167 293.977 23.1667 293.477 24.5C293.011 25.8 292.777 27.2167 292.777 28.75C292.777 30.6167 293.294 32 294.327 32.9C295.361 33.7667 296.911 34.2 298.977 34.2C300.177 34.2 301.344 34.0167 302.477 33.65C303.644 33.25 304.661 32.7 305.527 32L309.477 37.95C307.777 39.2167 305.927 40.1167 303.927 40.65C301.961 41.1833 299.961 41.45 297.927 41.45Z" fill="#FEFCFF"/>
</svg>
