<svg width="544" height="48" viewBox="0 0 544 48" fill="none" xmlns="http://www.w3.org/2000/svg">
<path d="M17.7 41.7C14.1 41.7 11 41.05 8.4 39.75C5.8 38.4167 3.8 36.6 2.4 34.3C1 32 0.3 29.3333 0.3 26.3C0.3 23.2333 0.833333 20.4333 1.9 17.9C2.96667 15.3333 4.46667 13.1167 6.4 11.25C8.33333 9.35 10.6333 7.88333 13.3 6.85C16 5.81666 18.95 5.3 22.15 5.3C25.75 5.3 28.85 5.96666 31.45 7.3C34.05 8.6 36.05 10.4 37.45 12.7C38.85 15 39.55 17.6667 39.55 20.7C39.55 23.7667 39.0167 26.5833 37.95 29.15C36.8833 31.6833 35.3833 33.9 33.45 35.8C31.5167 37.6667 29.2 39.1167 26.5 40.15C23.8333 41.1833 20.9 41.7 17.7 41.7ZM18.55 33.5C20.2833 33.5 21.8167 33.1833 23.15 32.55C24.5167 31.9167 25.6667 31.0333 26.6 29.9C27.5667 28.7333 28.3 27.4167 28.8 25.95C29.3 24.4833 29.55 22.9333 29.55 21.3C29.55 19.7333 29.2167 18.3667 28.55 17.2C27.9167 16.0333 26.9833 15.1333 25.75 14.5C24.55 13.8333 23.0667 13.5 21.3 13.5C19.6 13.5 18.0667 13.8167 16.7 14.45C15.3333 15.0833 14.1667 15.9833 13.2 17.15C12.2667 18.2833 11.55 19.5833 11.05 21.05C10.55 22.5167 10.3 24.0667 10.3 25.7C10.3 27.2333 10.6167 28.6 11.25 29.8C11.9167 30.9667 12.85 31.8833 14.05 32.55C15.2833 33.1833 16.7833 33.5 18.55 33.5ZM62.9852 13.45C65.2852 13.45 67.2352 13.9333 68.8352 14.9C70.4352 15.8333 71.5685 17.2333 72.2352 19.1C72.9352 20.9333 73.0018 23.2333 72.4352 26L69.4352 41H59.9352L62.7352 26.9C63.1018 25.1667 62.9852 23.8333 62.3852 22.9C61.8185 21.9667 60.7518 21.5 59.1852 21.5C57.5852 21.5 56.2352 22 55.1352 23C54.0352 24 53.2685 25.5333 52.8352 27.6L50.1352 41H40.6352L46.0352 13.9H55.0352L53.4852 21.5L52.2852 19.3C53.5852 17.2667 55.1852 15.7833 57.0852 14.85C59.0185 13.9167 60.9852 13.45 62.9852 13.45ZM75.4496 41L82.8496 3.9H92.3496L84.9496 41H75.4496ZM91.1234 41L96.5234 13.9H105.973L100.573 41H91.1234ZM102.573 10.9C100.907 10.9 99.5734 10.45 98.5734 9.55C97.6068 8.61667 97.1234 7.5 97.1234 6.2C97.1234 4.66666 97.6734 3.38333 98.7734 2.35C99.9068 1.31666 101.39 0.799999 103.223 0.799999C104.89 0.799999 106.223 1.23333 107.223 2.1C108.223 2.96666 108.723 4.05 108.723 5.35C108.723 6.98333 108.157 8.31667 107.023 9.35C105.89 10.3833 104.407 10.9 102.573 10.9ZM129.05 13.45C131.35 13.45 133.3 13.9333 134.9 14.9C136.5 15.8333 137.633 17.2333 138.3 19.1C139 20.9333 139.066 23.2333 138.5 26L135.5 41H126L128.8 26.9C129.166 25.1667 129.05 23.8333 128.45 22.9C127.883 21.9667 126.816 21.5 125.25 21.5C123.65 21.5 122.3 22 121.2 23C120.1 24 119.333 25.5333 118.9 27.6L116.2 41H106.7L112.1 13.9H121.1L119.55 21.5L118.35 19.3C119.65 17.2667 121.25 15.7833 123.15 14.85C125.083 13.9167 127.05 13.45 129.05 13.45ZM157.009 41.45C154.109 41.45 151.576 40.95 149.409 39.95C147.276 38.9167 145.609 37.4833 144.409 35.65C143.209 33.7833 142.609 31.6 142.609 29.1C142.609 26.1 143.293 23.4333 144.659 21.1C146.026 18.7333 147.943 16.8667 150.409 15.5C152.876 14.1333 155.743 13.45 159.009 13.45C161.776 13.45 164.143 13.95 166.109 14.95C168.109 15.95 169.643 17.35 170.709 19.15C171.809 20.9167 172.359 22.9833 172.359 25.35C172.359 26.15 172.309 26.9167 172.209 27.65C172.109 28.3833 171.976 29.1 171.809 29.8H150.059L150.959 24.8H167.409L163.459 26.25C163.726 24.95 163.676 23.8667 163.309 23C162.976 22.1 162.393 21.4167 161.559 20.95C160.759 20.45 159.759 20.2 158.559 20.2C157.026 20.2 155.759 20.5833 154.759 21.35C153.793 22.1167 153.059 23.1667 152.559 24.5C152.093 25.8 151.859 27.2167 151.859 28.75C151.859 30.6167 152.376 32 153.409 32.9C154.443 33.7667 155.993 34.2 158.059 34.2C159.259 34.2 160.426 34.0167 161.559 33.65C162.726 33.25 163.743 32.7 164.609 32L168.559 37.95C166.859 39.2167 165.009 40.1167 163.009 40.65C161.043 41.1833 159.043 41.45 157.009 41.45ZM187.094 41.7C185.094 41.7 183.177 41.5333 181.344 41.2C179.511 40.9 177.844 40.4667 176.344 39.9C174.844 39.3 173.561 38.65 172.494 37.95L176.394 30.55C177.594 31.2833 178.827 31.9167 180.094 32.45C181.394 32.95 182.711 33.3333 184.044 33.6C185.377 33.8667 186.711 34 188.044 34C189.311 34 190.394 33.8833 191.294 33.65C192.194 33.3833 192.877 33.0167 193.344 32.55C193.811 32.0833 194.044 31.5333 194.044 30.9C194.044 30.2 193.727 29.65 193.094 29.25C192.494 28.8167 191.694 28.45 190.694 28.15C189.694 27.85 188.577 27.55 187.344 27.25C186.144 26.9167 184.927 26.5333 183.694 26.1C182.494 25.6333 181.394 25.0667 180.394 24.4C179.394 23.7 178.577 22.8167 177.944 21.75C177.344 20.6833 177.044 19.3667 177.044 17.8C177.044 15.2667 177.727 13.0667 179.094 11.2C180.461 9.33333 182.394 7.88333 184.894 6.85C187.427 5.81666 190.411 5.3 193.844 5.3C196.344 5.3 198.677 5.56666 200.844 6.1C203.011 6.6 204.877 7.33333 206.444 8.3L202.844 15.65C201.477 14.7833 199.961 14.1333 198.294 13.7C196.661 13.2333 194.977 13 193.244 13C191.911 13 190.761 13.15 189.794 13.45C188.861 13.75 188.144 14.1667 187.644 14.7C187.177 15.2 186.944 15.7667 186.944 16.4C186.944 17.0667 187.244 17.6167 187.844 18.05C188.444 18.4833 189.244 18.85 190.244 19.15C191.277 19.45 192.394 19.7667 193.594 20.1C194.827 20.4 196.044 20.7667 197.244 21.2C198.444 21.6 199.561 22.15 200.594 22.85C201.627 23.5167 202.444 24.3667 203.044 25.4C203.644 26.4333 203.944 27.7167 203.944 29.25C203.944 31.75 203.261 33.9333 201.894 35.8C200.527 37.6667 198.577 39.1167 196.044 40.15C193.511 41.1833 190.527 41.7 187.094 41.7ZM217.967 41.45C215.867 41.45 214.067 41.05 212.567 40.25C211.067 39.4167 210.001 38.2167 209.367 36.65C208.734 35.05 208.634 33.15 209.067 30.95L213.667 7.85H223.167L218.567 30.9C218.401 31.9333 218.517 32.7333 218.917 33.3C219.317 33.8333 220.001 34.1 220.967 34.1C221.467 34.1 221.951 34.0333 222.417 33.9C222.884 33.7667 223.351 33.5667 223.817 33.3L225.017 39.85C224.017 40.4167 222.901 40.8167 221.667 41.05C220.467 41.3167 219.234 41.45 217.967 41.45ZM206.867 22L208.317 14.9H227.917L226.517 22H206.867ZM242.599 41.45C239.733 41.45 237.233 40.9333 235.099 39.9C232.966 38.8667 231.316 37.4333 230.149 35.6C228.983 33.7333 228.399 31.5667 228.399 29.1C228.399 26.1 229.116 23.4333 230.549 21.1C231.983 18.7333 233.949 16.8667 236.449 15.5C238.949 14.1333 241.816 13.45 245.049 13.45C247.949 13.45 250.449 13.9667 252.549 15C254.683 16 256.333 17.4167 257.499 19.25C258.666 21.0833 259.249 23.25 259.249 25.75C259.249 28.75 258.533 31.4333 257.099 33.8C255.666 36.1667 253.699 38.0333 251.199 39.4C248.699 40.7667 245.833 41.45 242.599 41.45ZM243.149 33.9C244.416 33.9 245.533 33.5833 246.499 32.95C247.466 32.2833 248.216 31.3833 248.749 30.25C249.316 29.1167 249.599 27.7833 249.599 26.25C249.599 24.75 249.149 23.5 248.249 22.5C247.383 21.5 246.133 21 244.499 21C243.233 21 242.116 21.3167 241.149 21.95C240.183 22.5833 239.416 23.4833 238.849 24.65C238.316 25.7833 238.049 27.1167 238.049 28.65C238.049 30.25 238.499 31.5333 239.399 32.5C240.299 33.4333 241.549 33.9 243.149 33.9ZM260.801 41L266.201 13.9H275.201L273.651 21.6L272.751 19.4C273.951 17.2333 275.535 15.7 277.501 14.8C279.468 13.9 281.768 13.45 284.401 13.45L282.751 22C282.351 21.9333 281.985 21.9 281.651 21.9C281.318 21.8667 280.968 21.85 280.601 21.85C278.535 21.85 276.835 22.35 275.501 23.35C274.201 24.3167 273.335 25.9333 272.901 28.2L270.301 41H260.801ZM297.927 41.45C295.027 41.45 292.494 40.95 290.327 39.95C288.194 38.9167 286.527 37.4833 285.327 35.65C284.127 33.7833 283.527 31.6 283.527 29.1C283.527 26.1 284.211 23.4333 285.577 21.1C286.944 18.7333 288.861 16.8667 291.327 15.5C293.794 14.1333 296.661 13.45 299.927 13.45C302.694 13.45 305.061 13.95 307.027 14.95C309.027 15.95 310.561 17.35 311.627 19.15C312.727 20.9167 313.277 22.9833 313.277 25.35C313.277 26.15 313.227 26.9167 313.127 27.65C313.027 28.3833 312.894 29.1 312.727 29.8H290.977L291.877 24.8H308.327L304.377 26.25C304.644 24.95 304.594 23.8667 304.227 23C303.894 22.1 303.311 21.4167 302.477 20.95C301.677 20.45 300.677 20.2 299.477 20.2C297.944 20.2 296.677 20.5833 295.677 21.35C294.711 22.1167 293.977 23.1667 293.477 24.5C293.011 25.8 292.777 27.2167 292.777 28.75C292.777 30.6167 293.294 32 294.327 32.9C295.361 33.7667 296.911 34.2 298.977 34.2C300.177 34.2 301.344 34.0167 302.477 33.65C303.644 33.25 304.661 32.7 305.527 32L309.477 37.95C307.777 39.2167 305.927 40.1167 303.927 40.65C301.961 41.1833 299.961 41.45 297.927 41.45ZM332.318 47.79C331.945 47.02 331.606 46.0633 331.303 44.92C331 43.8 330.755 42.5867 330.568 41.28C330.381 39.9967 330.288 38.69 330.288 37.36C330.288 35.2833 330.463 33.23 330.813 31.2C331.186 29.17 331.711 27.1983 332.388 25.285C333.065 23.3717 333.905 21.5517 334.908 19.825C335.911 18.0983 337.066 16.5 338.373 15.03H344.953C343.576 16.85 342.375 18.6817 341.348 20.525C340.321 22.345 339.458 24.2 338.758 26.09C338.081 27.9567 337.568 29.8583 337.218 31.795C336.891 33.7317 336.728 35.7033 336.728 37.71C336.728 39.4133 336.868 41.0933 337.148 42.75C337.428 44.4067 337.848 46.0867 338.408 47.79H332.318ZM341.983 41L345.798 22.03H365.398L361.583 41H354.968L357.908 25.88L359.098 27.315H349.788L351.538 25.88L348.598 41H341.983ZM379.029 41.315C377.512 41.315 376.194 41.0233 375.074 40.44C373.954 39.8333 373.137 38.865 372.624 37.535C372.11 36.205 371.994 34.4317 372.274 32.215C372.507 30.045 373.009 28.1783 373.779 26.615C374.572 25.0517 375.599 23.85 376.859 23.01C378.142 22.1467 379.624 21.715 381.304 21.715C382.68 21.715 383.975 22.0533 385.189 22.73C386.425 23.4067 387.417 24.3867 388.164 25.67C388.934 26.93 389.319 28.4817 389.319 30.325C389.319 31.9117 389.05 33.37 388.514 34.7C387.977 36.03 387.23 37.1967 386.274 38.2C385.34 39.18 384.255 39.95 383.019 40.51C381.782 41.0467 380.452 41.315 379.029 41.315ZM364.749 47.79L369.894 22.03H376.194L375.529 25.215L374.304 31.48L373.429 37.71L371.399 47.79H364.749ZM378.084 35.96C378.97 35.96 379.752 35.7383 380.429 35.295C381.105 34.8517 381.63 34.2333 382.004 33.44C382.4 32.6467 382.599 31.725 382.599 30.675C382.599 29.5783 382.284 28.7033 381.654 28.05C381.024 27.3733 380.137 27.035 378.994 27.035C378.13 27.035 377.349 27.2683 376.649 27.735C375.972 28.1783 375.435 28.7967 375.039 29.59C374.665 30.3833 374.479 31.305 374.479 32.355C374.479 33.4517 374.794 34.3267 375.424 34.98C376.054 35.6333 376.94 35.96 378.084 35.96ZM401.051 41.315C399.044 41.315 397.294 40.9533 395.801 40.23C394.307 39.5067 393.152 38.5033 392.336 37.22C391.519 35.9133 391.111 34.3967 391.111 32.67C391.111 30.57 391.612 28.7033 392.616 27.07C393.619 25.4133 394.996 24.1067 396.746 23.15C398.496 22.1933 400.502 21.715 402.766 21.715C404.796 21.715 406.546 22.0767 408.016 22.8C409.509 23.5 410.664 24.4917 411.481 25.775C412.297 27.0583 412.706 28.575 412.706 30.325C412.706 32.425 412.204 34.3033 411.201 35.96C410.197 37.6167 408.821 38.9233 407.071 39.88C405.321 40.8367 403.314 41.315 401.051 41.315ZM401.436 36.03C402.322 36.03 403.104 35.8083 403.781 35.365C404.457 34.8983 404.982 34.2683 405.356 33.475C405.752 32.6817 405.951 31.7483 405.951 30.675C405.951 29.625 405.636 28.75 405.006 28.05C404.399 27.35 403.524 27 402.381 27C401.494 27 400.712 27.2217 400.036 27.665C399.359 28.1083 398.822 28.7383 398.426 29.555C398.052 30.3483 397.866 31.2817 397.866 32.355C397.866 33.475 398.181 34.3733 398.811 35.05C399.441 35.7033 400.316 36.03 401.436 36.03ZM427.275 38.095L429.41 27.315H424.335L423.845 29.415C423.635 30.325 423.425 31.1767 423.215 31.97C423.005 32.74 422.76 33.44 422.48 34.07C422.2 34.7 421.85 35.2367 421.43 35.68C421.033 36.1233 420.52 36.45 419.89 36.66L413.135 35.68C413.765 35.68 414.325 35.4933 414.815 35.12C415.328 34.7233 415.783 34.1867 416.18 33.51C416.577 32.81 416.927 32.0283 417.23 31.165C417.533 30.2783 417.802 29.345 418.035 28.365L419.575 22.03H437.11L433.89 38.095H427.275ZM410.895 44.92L412.75 35.68H437.005L435.185 44.92H429.025L429.795 41H417.825L417.09 44.92H410.895ZM447.424 41.315C446.071 41.315 444.776 40.9767 443.539 40.3C442.302 39.6233 441.299 38.6433 440.529 37.36C439.782 36.0767 439.409 34.5133 439.409 32.67C439.409 31.0833 439.677 29.625 440.214 28.295C440.751 26.965 441.486 25.81 442.419 24.83C443.376 23.85 444.472 23.0917 445.709 22.555C446.969 21.995 448.299 21.715 449.699 21.715C451.239 21.715 452.557 22.0183 453.654 22.625C454.774 23.2083 455.591 24.165 456.104 25.495C456.617 26.8017 456.734 28.575 456.454 30.815C456.244 32.9383 455.742 34.7933 454.949 36.38C454.156 37.9667 453.129 39.1917 451.869 40.055C450.609 40.895 449.127 41.315 447.424 41.315ZM449.734 35.96C450.621 35.96 451.402 35.7383 452.079 35.295C452.756 34.8517 453.281 34.2333 453.654 33.44C454.051 32.6467 454.249 31.725 454.249 30.675C454.249 29.5783 453.934 28.7033 453.304 28.05C452.674 27.3733 451.787 27.035 450.644 27.035C449.781 27.035 448.999 27.2683 448.299 27.735C447.622 28.1783 447.086 28.7967 446.689 29.59C446.316 30.3833 446.129 31.305 446.129 32.355C446.129 33.4517 446.444 34.3267 447.074 34.98C447.704 35.6333 448.591 35.96 449.734 35.96ZM452.534 41L453.199 37.815L454.459 31.55L455.299 25.285L455.964 22.03H462.614L458.834 41H452.534ZM463.321 41L467.136 22.03H477.076C479.316 22.03 481.042 22.4267 482.256 23.22C483.492 24.0133 484.111 25.1567 484.111 26.65C484.111 28.2367 483.399 29.52 481.976 30.5C480.576 31.4567 478.674 31.935 476.271 31.935L476.726 30.535C478.756 30.535 480.307 30.9083 481.381 31.655C482.454 32.4017 482.991 33.545 482.991 35.085C482.991 36.905 482.232 38.3517 480.716 39.425C479.199 40.475 477.041 41 474.241 41H463.321ZM470.111 36.695H474.346C475.186 36.695 475.851 36.5083 476.341 36.135C476.831 35.7617 477.076 35.2833 477.076 34.7C477.076 34.1867 476.901 33.8133 476.551 33.58C476.224 33.3233 475.746 33.195 475.116 33.195H470.811L470.111 36.695ZM471.511 29.66H475.151C475.967 29.66 476.609 29.485 477.076 29.135C477.566 28.7617 477.811 28.2833 477.811 27.7C477.811 27.21 477.636 26.8483 477.286 26.615C476.959 26.3583 476.481 26.23 475.851 26.23H472.211L471.511 29.66ZM495.87 41.315C493.84 41.315 492.067 40.965 490.55 40.265C489.057 39.5417 487.89 38.5383 487.05 37.255C486.21 35.9483 485.79 34.42 485.79 32.67C485.79 30.57 486.268 28.7033 487.225 27.07C488.182 25.4133 489.523 24.1067 491.25 23.15C492.977 22.1933 494.983 21.715 497.27 21.715C499.207 21.715 500.863 22.065 502.24 22.765C503.64 23.465 504.713 24.445 505.46 25.705C506.23 26.9417 506.615 28.3883 506.615 30.045C506.615 30.605 506.58 31.1417 506.51 31.655C506.44 32.1683 506.347 32.67 506.23 33.16H491.005L491.635 29.66H503.15L500.385 30.675C500.572 29.765 500.537 29.0067 500.28 28.4C500.047 27.77 499.638 27.2917 499.055 26.965C498.495 26.615 497.795 26.44 496.955 26.44C495.882 26.44 494.995 26.7083 494.295 27.245C493.618 27.7817 493.105 28.5167 492.755 29.45C492.428 30.36 492.265 31.3517 492.265 32.425C492.265 33.7317 492.627 34.7 493.35 35.33C494.073 35.9367 495.158 36.24 496.605 36.24C497.445 36.24 498.262 36.1117 499.055 35.855C499.872 35.575 500.583 35.19 501.19 34.7L503.955 38.865C502.765 39.7517 501.47 40.3817 500.07 40.755C498.693 41.1283 497.293 41.315 495.87 41.315ZM507.618 41L511.433 22.03H518.048L515.318 35.68H521.478L524.208 22.03H530.823L527.008 41H507.618ZM522.738 44.92L523.508 40.965L524.978 41H520.393L521.478 35.68H530.753L528.898 44.92H522.738ZM529.315 47.79C530.691 45.97 531.893 44.1383 532.92 42.295C533.946 40.475 534.798 38.6317 535.475 36.765C536.175 34.875 536.688 32.9617 537.015 31.025C537.365 29.065 537.54 27.0933 537.54 25.11C537.54 23.4067 537.4 21.7267 537.12 20.07C536.863 18.4133 536.443 16.7333 535.86 15.03H541.95C542.346 15.8 542.685 16.7567 542.965 17.9C543.268 19.02 543.513 20.2333 543.7 21.54C543.886 22.8233 543.98 24.13 543.98 25.46C543.98 27.5367 543.793 29.59 543.42 31.62C543.07 33.65 542.545 35.6217 541.845 37.535C541.168 39.4483 540.328 41.2683 539.325 42.995C538.321 44.7217 537.178 46.32 535.895 47.79H529.315Z" fill="#FEFCFF"/>
</svg>
