<svg width="48" height="48" viewBox="0 0 48 48" fill="none" xmlns="http://www.w3.org/2000/svg">
<rect width="48" height="48" rx="12" fill="#5F70A3"/>
<path d="M15.4638 20.0502H6.31202C5.6518 20.0502 5.17278 20.6787 5.34779 21.3153L10.0075 38.2651C10.1269 38.6992 10.5216 39 10.9718 39H37.0282C37.4784 39 37.8731 38.6992 37.9925 38.2651L42.6522 21.3153C42.8272 20.6787 42.3482 20.0502 41.688 20.0502H31.9855M15.4638 20.0502L21.5217 8M15.4638 20.0502H24.2754H31.9855M31.9855 20.0502L25.9275 8" stroke="white" stroke-width="2" stroke-linecap="round"/>
<path d="M16 27L17 32" stroke="white" stroke-width="2" stroke-linecap="round"/>
<path d="M32 27L31 32" stroke="white" stroke-width="2" stroke-linecap="round"/>
<path d="M24 27L24 32" stroke="white" stroke-width="2" stroke-linecap="round"/>
</svg>
