<svg width="48" height="43" viewBox="0 0 48 43" fill="none" xmlns="http://www.w3.org/2000/svg">
<path d="M38.0625 42.8607H9.0625C7.62039 42.8607 6.23734 42.2963 5.21761 41.2915C4.19788 40.2868 3.625 38.9241 3.625 37.5031V19.6445C3.625 19.1709 3.81596 18.7166 4.15587 18.3817C4.49578 18.0468 4.9568 17.8586 5.4375 17.8586C5.91821 17.8586 6.37922 18.0468 6.71913 18.3817C7.05904 18.7166 7.25 19.1709 7.25 19.6445V37.5031C7.25 37.9768 7.44096 38.431 7.78087 38.7659C8.12078 39.1008 8.5818 39.289 9.0625 39.289H38.0625C38.5432 39.289 39.0042 39.1008 39.3441 38.7659C39.684 38.431 39.875 37.9768 39.875 37.5031V19.6445C39.875 19.1709 40.066 18.7166 40.4059 18.3817C40.7458 18.0468 41.2068 17.8586 41.6875 17.8586C42.1682 17.8586 42.6292 18.0468 42.9691 18.3817C43.309 18.7166 43.5 19.1709 43.5 19.6445V37.5031C43.5 38.9241 42.9271 40.2868 41.9074 41.2915C40.8877 42.2963 39.5046 42.8607 38.0625 42.8607Z" fill="black"/>
<path d="M21.75 42.8607H12.6875C12.2068 42.8607 11.7458 42.6726 11.4059 42.3376C11.066 42.0027 10.875 41.5485 10.875 41.0748V30.3597C10.875 28.9387 11.4479 27.576 12.4676 26.5713C13.4873 25.5665 14.8704 25.0021 16.3125 25.0021H18.125C19.5671 25.0021 20.9502 25.5665 21.9699 26.5713C22.9896 27.576 23.5625 28.9387 23.5625 30.3597V41.0748C23.5625 41.5485 23.3715 42.0027 23.0316 42.3376C22.6917 42.6726 22.2307 42.8607 21.75 42.8607ZM14.5 39.289H19.9375V30.3597C19.9375 29.886 19.7465 29.4318 19.4066 29.0969C19.0667 28.762 18.6057 28.5738 18.125 28.5738H16.3125C15.8318 28.5738 15.3708 28.762 15.0309 29.0969C14.691 29.4318 14.5 29.886 14.5 30.3597V39.289Z" fill="black"/>
<path d="M39.875 21.4304C37.9522 21.4304 36.1081 20.6777 34.7485 19.3381C33.3888 17.9984 32.625 16.1815 32.625 14.2869C32.625 13.8133 32.816 13.359 33.1559 13.0241C33.4958 12.6892 33.9568 12.501 34.4375 12.501C34.9182 12.501 35.3792 12.6892 35.7191 13.0241C36.059 13.359 36.25 13.8133 36.25 14.2869C36.25 15.2342 36.6319 16.1427 37.3117 16.8125C37.9916 17.4823 38.9136 17.8586 39.875 17.8586C40.8364 17.8586 41.7584 17.4823 42.4383 16.8125C43.1181 16.1427 43.5 15.2342 43.5 14.2869V12.9296L38.7512 3.57173H8.37375L3.625 12.9296V14.2869C3.625 15.2342 4.00692 16.1427 4.68674 16.8125C5.36656 17.4823 6.28859 17.8586 7.25 17.8586C8.21141 17.8586 9.13344 17.4823 9.81326 16.8125C10.4931 16.1427 10.875 15.2342 10.875 14.2869C10.875 13.8133 11.066 13.359 11.4059 13.0241C11.7458 12.6892 12.2068 12.501 12.6875 12.501C13.1682 12.501 13.6292 12.6892 13.9691 13.0241C14.309 13.359 14.5 13.8133 14.5 14.2869C14.5 16.1815 13.7362 17.9984 12.3765 19.3381C11.0169 20.6777 9.17282 21.4304 7.25 21.4304C5.32718 21.4304 3.48311 20.6777 2.12348 19.3381C0.763837 17.9984 0 16.1815 0 14.2869V12.501C0.00170118 12.2215 0.0699916 11.9462 0.199375 11.6974L5.63688 0.982225C5.78749 0.68771 6.01794 0.440041 6.30267 0.26667C6.5874 0.0932998 6.91529 0.000999557 7.25 0H39.875C40.2097 0.000999557 40.5376 0.0932998 40.8223 0.26667C41.1071 0.440041 41.3375 0.68771 41.4881 0.982225L46.9256 11.6974C47.055 11.9462 47.1233 12.2215 47.125 12.501V14.2869C47.125 16.1815 46.3612 17.9984 45.0015 19.3381C43.6419 20.6777 41.7978 21.4304 39.875 21.4304Z" fill="black"/>
<path d="M18.125 21.4304C16.2022 21.4304 14.3581 20.6777 12.9985 19.3381C11.6388 17.9984 10.875 16.1815 10.875 14.2869C10.875 13.8133 11.066 13.359 11.4059 13.0241C11.7458 12.6892 12.2068 12.501 12.6875 12.501C13.1682 12.501 13.6292 12.6892 13.9691 13.0241C14.309 13.359 14.5 13.8133 14.5 14.2869C14.5 15.2342 14.8819 16.1427 15.5617 16.8125C16.2416 17.4823 17.1636 17.8586 18.125 17.8586C19.0864 17.8586 20.0084 17.4823 20.6883 16.8125C21.3681 16.1427 21.75 15.2342 21.75 14.2869C21.75 13.8133 21.941 13.359 22.2809 13.0241C22.6208 12.6892 23.0818 12.501 23.5625 12.501C24.0432 12.501 24.5042 12.6892 24.8441 13.0241C25.184 13.359 25.375 13.8133 25.375 14.2869C25.375 16.1815 24.6112 17.9984 23.2515 19.3381C21.8919 20.6777 20.0478 21.4304 18.125 21.4304Z" fill="black"/>
<path d="M29 21.4304C27.0772 21.4304 25.2331 20.6777 23.8735 19.3381C22.5138 17.9984 21.75 16.1815 21.75 14.2869C21.75 13.8133 21.941 13.359 22.2809 13.0241C22.6208 12.6892 23.0818 12.501 23.5625 12.501C24.0432 12.501 24.5042 12.6892 24.8441 13.0241C25.184 13.359 25.375 13.8133 25.375 14.2869C25.375 15.2342 25.7569 16.1427 26.4367 16.8125C27.1166 17.4823 28.0386 17.8586 29 17.8586C29.9614 17.8586 30.8834 17.4823 31.5633 16.8125C32.2431 16.1427 32.625 15.2342 32.625 14.2869C32.625 13.8133 32.816 13.359 33.1559 13.0241C33.4958 12.6892 33.9568 12.501 34.4375 12.501C34.9182 12.501 35.3792 12.6892 35.7191 13.0241C36.059 13.359 36.25 13.8133 36.25 14.2869C36.25 16.1815 35.4862 17.9984 34.1265 19.3381C32.7669 20.6777 30.9228 21.4304 29 21.4304Z" fill="black"/>
<path d="M34.4375 30.3597H29C28.5193 30.3597 28.0583 30.1715 27.7184 29.8366C27.3785 29.5017 27.1875 29.0474 27.1875 28.5738C27.1875 28.1002 27.3785 27.6459 27.7184 27.311C28.0583 26.9761 28.5193 26.7879 29 26.7879H34.4375C34.9182 26.7879 35.3792 26.9761 35.7191 27.311C36.059 27.6459 36.25 28.1002 36.25 28.5738C36.25 29.0474 36.059 29.5017 35.7191 29.8366C35.3792 30.1715 34.9182 30.3597 34.4375 30.3597Z" fill="black"/>
</svg>
